<svg xmlns="http://www.w3.org/2000/svg" viewBox="0 0 430.61 124"><defs><style>.cls-1{fill:#e8911a;}.cls-2{fill:#f5f6f7;}</style></defs><g id="Layer_2" data-name="Layer 2"><g id="Layer_1-2" data-name="Layer 1"><path class="cls-1" d="M18.68,114.69Q6.88,111.09,0,105.15L7,89.37A55.48,55.48,0,0,0,23.52,98a60,60,0,0,0,19.62,3.36q12.2,0,18.21-3.91t6-10.31A10,10,0,0,0,64,79.44a23.76,23.76,0,0,0-8.52-4.77Q50.33,73,41.42,70.76a162.32,162.32,0,0,1-20.24-5.93,33.32,33.32,0,0,1-13.29-9.3Q2.34,49.18,2.34,38.41A29.23,29.23,0,0,1,7.27,21.92q4.92-7.43,14.85-11.8t24.3-4.38a78.93,78.93,0,0,1,19.7,2.5,54.64,54.64,0,0,1,16.72,7.19L76.43,31.22a63.33,63.33,0,0,0-15-6.41,56.12,56.12,0,0,0-15.16-2.19q-12,0-17.9,4.07a12.52,12.52,0,0,0-5.86,10.78,9.75,9.75,0,0,0,3.36,7.66,24.33,24.33,0,0,0,8.52,4.69q5.16,1.73,14.06,3.91a147.47,147.47,0,0,1,20,5.86,34.22,34.22,0,0,1,13.36,9.3q5.55,6.26,5.55,16.88a28.83,28.83,0,0,1-4.92,16.41q-4.92,7.35-14.93,11.72t-24.38,4.38A83.65,83.65,0,0,1,18.68,114.69Z"/><path class="cls-1" d="M310.73,116.72l-22.35-32c-.94.1-2.35.15-4.22.15h-24.7v31.89H239.14V7.31h45q14.22,0,24.77,4.69a35.92,35.92,0,0,1,16.18,13.44q5.63,8.75,5.63,20.79,0,12.35-6,21.25T307.45,80.77l25.16,36Zm-7.35-86.59q-6.87-5.62-20.16-5.63H259.46V68.11h23.76q13.29,0,20.16-5.71t6.88-16.17Q310.26,35.76,303.38,30.13Z"/><path class="cls-1" d="M374,24.5H337.77V7.31h92.84V24.5H394.35v92.22H374Z"/><circle class="cls-2" cx="158.88" cy="62" r="54"/><path class="cls-1" d="M158.88,16a46,46,0,1,1-46,46,46.05,46.05,0,0,1,46-46m0-16a62,62,0,1,0,62,62,62,62,0,0,0-62-62Z"/></g></g></svg>